<?xml version="1.0" encoding="utf-8"?>
<!-- Generator: Adobe Illustrator 23.0.1, SVG Export Plug-In . SVG Version: 6.00 Build 0)  -->
<svg version="1.1" id="Layer_1" xmlns="http://www.w3.org/2000/svg" xmlns:xlink="http://www.w3.org/1999/xlink" x="0px" y="0px"
	 viewBox="0 0 486.1 198" style="enable-background:new 0 0 486.1 198;" xml:space="preserve">
<style type="text/css">
	.st0{fill:#323232;}
</style>
<g>
	<path class="st0" d="M446.7,128.6c0,1.8-0.9,3.4-2.5,4.5c-1.6,1.1-3.6,1.6-6.1,1.6h-8.5c-2.7,0-4.7-0.7-6.3-2.2
		c-1.6-1.6-2.2-3.4-2.2-5.8v-2.7h40.2v-11.4c0-6.5-2-11.9-6.3-15.7c-4-3.8-9.7-5.8-16.6-5.8h-8.8c-4.5,0-8.5,0.9-12.1,2.7
		c-3.4,1.8-6.1,4.3-8.1,7.6c-2,3.1-2.9,7-2.9,11.2v13.9c0,3.8,0.9,7.4,2.9,10.6c1.8,3.1,4.7,5.4,8.1,7.2c3.6,1.6,7.6,2.5,12.1,2.5
		c0,0,14.2,0.4,20.4-1.8c3.6-1.6,6.3-3.6,8.3-6.5s2.9-6.1,2.9-9.7L446.7,128.6L446.7,128.6z M421.1,112.7c0-2.9,0.9-5.4,2.5-7.2
		s3.6-2.7,6.3-2.7h8.8c2.5,0,4.5,0.9,6.1,2.7c1.6,1.6,2.2,3.8,2.2,6.7v0.7h-25.8L421.1,112.7L421.1,112.7z"/>
	<path class="st0" d="M315,108.4c0-21.5,0-68.6,0-68.6h-13.2l-24.9,50.1l-24.3-50.1h-13.2v71.9h14.4v-39l15.9,29
		c1.1,2,2.2,3.4,3.4,4.3c1.1,0.9,2.2,1.1,3.8,1.1h4l19.5-34.4l-0.1,36"/>
	<path class="st0" d="M384.5,75.2h-14.4v16.4h-9.9v12.6h9.7V128c0,6.1,1.6,10.6,4.5,13.5c2.9,2.9,7.6,4.3,13.9,4.3h10.3v-12.6h-9.4
		c-1.6,0-2.7-0.4-3.6-1.4c-0.7-0.9-1.1-2.5-1.1-4.5v-23.1h14.1V91.6h-14.1L384.5,75.2L384.5,75.2z"/>
	<path class="st0" d="M345.9,95.4c-4-3.4-9.2-5.2-15.5-5.2H321c-6.3,0-11.5,1.6-15.3,4.9c-3.8,3.4-5.8,7.4-5.8,12.8h14.4
		c0-1.6,0.7-2.9,1.8-3.8c1.4-0.9,2.9-1.3,4.9-1.3h9.4c2,0,3.6,0.7,4.7,1.8c1.1,0.9,1.8,2.5,1.8,4.3v5.6c-1.8-0.9-3.8-1.6-6.1-2
		c-2.2-0.4-4.3-0.7-6.1-0.7h-6.5c-6.1,0-10.8,1.3-14.4,4.3c-3.6,2.7-5.4,6.5-5.4,11v4c0,4.7,1.8,8.3,5.2,11.2
		c3.6,2.9,8.1,4.3,13.7,4.3c0,0,8.4,0.4,14.1-2.5c2.7-1.4,4.7-3.1,6.5-5.4v6.5h13.7v-36.6C351.8,103.3,349.7,98.8,345.9,95.4z
		 M336.9,127.7c-0.9,2.5-2.5,4.3-4.5,5.6c-2,1.3-4.5,2-7.2,2l-5.8,0.2c-1.8,0-3.6-0.4-4.7-1.3c-1.1-0.9-1.8-2-1.8-3.4V128
		c0-1.3,0.4-2.5,1.6-3.4c1.1-0.9,2.5-1.3,4.3-1.3h6.7c2.2,0,4.5,0.2,6.5,0.7c2.3,0.4,3.8,1.1,4.9,2L336.9,127.7L336.9,127.7z"/>
</g>
<path class="st0" d="M154.4,90.1L154.4,90.1v30.3c-0.7,3.1-2,5.8-4,7.9s-4,2.9-6.5,2.9h-6.3c-1.8,0-3.6-0.9-4.7-2.2
	c-1.1-1.6-1.8-3.4-1.8-5.8v-33h-14.8v33c0,6.3,1.8,11.4,5.2,15.3s8.1,5.6,13.7,5.6h7.2c2,0,4.3-0.7,6.3-1.8c2.2-1.4,4.3-3.1,5.8-5.4
	v7c0,2.9-0.9,5.4-2.2,7.2c-1.4,2-3.1,2.9-5.4,2.9h-9c-1.6,0-3.1-0.4-4.3-1.6c-1.1-0.9-1.8-2.2-2-3.8h-14.6c0.4,5.4,2.5,9.7,6.3,13
	c3.8,3.4,8.8,4.9,14.6,4.9h9c4.3,0,8.3-1.1,11.7-2.9s6.1-4.5,7.9-7.9c2-3.4,2.9-7.4,2.9-11.9l-0.1-53.7"/>
<path class="st0" d="M69.3,115.5h21.1v2.5c0,3.8-1.1,7.2-3.6,9.9c-2.5,2.7-5.6,4-9.2,4H64.8c-4,0-7.2-1.6-9.7-4.5
	c-2.5-3.1-3.6-7-3.6-11.9V96.8c0-4.7,1.1-8.8,3.6-11.7s5.8-4.5,9.9-4.5h12.1c3.8,0,7,1.1,9.2,3.6c2.2,2.5,3.4,5.6,3.4,9.4h14.8
	c0-5.2-1.1-9.7-3.4-13.7s-5.6-7-9.7-9.2c-4.3-2.2-9-3.4-14.4-3.4H65c-5.6,0-10.8,1.1-15,3.6c-4.3,2.2-7.4,5.6-9.9,10.1
	c-2.2,4.3-3.4,9.4-3.4,15v20c0,5.8,1.1,10.8,3.4,15.3c2.2,4.3,5.6,7.6,9.9,10.1s9.2,3.6,14.8,3.6l0,0h12.8c5.4,0,10.1-1.1,14.4-3.4
	c4.3-2.2,7.6-5.6,9.9-9.7c2.2-4.3,3.4-8.8,3.4-14.1v-15.5H69.3V115.5z"/>
<path class="st0" d="M169.1,108.6l-0.1-36l19.5,34.4h4c1.6,0,2.7-0.2,3.8-1.1c1.1-0.9,2.2-2.2,3.4-4.3l15.9-29v39h14.4V39.8h-13.2
	l-24.3,50.1l-24.9-50.1h-13.2c0,0,0,47.1,0,68.6"/>
</svg>
